<svg xmlns="http://www.w3.org/2000/svg" version="1.1" width="455" height="153">
<path d="M0 0 C158.07 0 316.14 0 479 0 C479 50.49 479 100.98 479 153 C320.93 153 162.86 153 0 153 C0 102.51 0 52.02 0 0 Z " fill="#121212" transform="translate(0,0)"/>
<path d="M0 0 C22.86860971 -0.5699342 40.62797015 7.06265624 57.16015625 22.5703125 C69.09520751 34.72570316 75.66186198 52.74962247 76.07421875 69.65625 C75.9200024 76.52588763 74.79081899 82.62901478 72.69921875 89.15625 C72.42078125 90.06890625 72.14234375 90.9815625 71.85546875 91.921875 C65.83732114 110.08007898 53.7303516 124.54680398 36.69921875 133.15625 C32.10877721 135.15935176 27.50992394 136.77011461 22.69921875 138.15625 C21.86132812 138.40117187 21.0234375 138.64609375 20.16015625 138.8984375 C2.48897159 143.212807 -16.44034953 139.2839698 -31.80078125 129.96875 C-47.9280497 119.26279496 -58.6211837 104.09514412 -63.609375 85.33203125 C-67.36071598 66.1153918 -63.95475743 47.33615625 -53.26171875 31.05078125 C-42.11984074 15.51908204 -26.51521226 4.1991362 -7.55078125 0.40625 C-5.03664969 0.20143277 -2.51989233 0.11928484 0 0 Z " fill="#1BD25D" transform="translate(70.30078125,4.84375)"/>
<path d="M0 0 C0.61875 0.33 1.2375 0.66 1.875 1 C1.875 4.3 1.875 7.6 1.875 11 C-0.6640625 10.93489583 -3.203125 10.86979167 -5.7421875 10.8046875 C-8.31306994 10.75675164 -8.31306994 10.75675164 -10.125 13 C-10.455 14.65 -10.785 16.3 -11.125 18 C-4.525 18 2.075 18 8.875 18 C10.44634382 21.93091043 12.01448327 25.86280033 13.57470703 29.7980957 C14.10639321 31.13639426 14.63991007 32.47396703 15.17529297 33.81079102 C15.94461 35.73265629 16.70730154 37.65703716 17.46875 39.58203125 C18.16000977 41.31803589 18.16000977 41.31803589 18.86523438 43.08911133 C19.875 46 19.875 46 19.875 49 C20.535 49 21.195 49 21.875 49 C22.07802734 48.15695313 22.07802734 48.15695313 22.28515625 47.296875 C24.8403181 37.32103353 28.41171155 27.68771921 31.875 18 C36.165 18 40.455 18 44.875 18 C43.99564805 22.39675976 42.73269435 26.28867603 41.125 30.4375 C40.57841951 31.86810503 40.03286487 33.29910238 39.48828125 34.73046875 C39.21580566 35.44638184 38.94333008 36.16229492 38.66259766 36.89990234 C37.49978842 40.00048669 36.40749249 43.12492619 35.3125 46.25 C33.0532463 52.60189539 30.59646233 58.8319208 27.875 65 C27.47410156 65.92167969 27.07320313 66.84335938 26.66015625 67.79296875 C23.83719144 73.89887028 21.04126405 77.91686798 14.875 81 C3.63706434 81.94101877 3.63706434 81.94101877 -1.125 78 C-0.6270163 74.26512223 -0.25008244 72.18762365 1.875 69 C4.1875 68.77734375 4.1875 68.77734375 6.875 68.9375 C9.4992917 69.1290899 9.4992917 69.1290899 11.875 69 C12.535 68.34 13.195 67.68 13.875 67 C13.50256569 63.36723912 12.27360174 60.44696473 10.6875 57.1875 C7.84393126 51.11185168 5.51915039 44.89224214 3.20703125 38.6015625 C2.13906748 35.71398889 1.03628163 32.85091889 -0.125 30 C-3.425 29.67 -6.725 29.34 -10.125 29 C-10.125 41.21 -10.125 53.42 -10.125 66 C-14.415 66 -18.705 66 -23.125 66 C-23.125 53.79 -23.125 41.58 -23.125 29 C-25.105 29 -27.085 29 -29.125 29 C-29.125 25.04 -29.125 21.08 -29.125 17 C-27.145 17 -25.165 17 -23.125 17 C-23.24875 15.205625 -23.24875 15.205625 -23.375 13.375 C-23.35903649 8.85732671 -22.11813363 6.46573367 -19.125 3 C-13.45640205 -2.12873148 -7.05734781 -2.2583513 0 0 Z " fill="#1BCD5B" transform="translate(409.125,41)"/>
<path d="M0 0 C6.09467681 2.59970678 11.11579202 6.88751128 13.8984375 12.9609375 C16.92835911 20.88320959 17.12394162 28.86260246 14.1015625 36.828125 C11.41562354 42.12380608 7.71417982 46.60585125 2.1875 49 C-3.81504713 50.79145786 -10.15249973 51.00776518 -16 48.625 C-19 47 -19 47 -21 45 C-21.33 51.27 -21.66 57.54 -22 64 C-25.96 64 -29.92 64 -34 64 C-34 43.21 -34 22.42 -34 1 C-30.04 1 -26.08 1 -22 1 C-21.67 2.32 -21.34 3.64 -21 5 C-20.13375 4.175 -19.2675 3.35 -18.375 2.5 C-12.84088262 -1.42562392 -6.47163441 -1.03956118 0 0 Z " fill="#1BD05C" transform="translate(255,58)"/>
<path d="M0 0 C5.89866965 4.7668216 9.27898553 9.20479674 10.3125 16.79296875 C10.73148422 25.19997827 9.43383984 31.10763481 3.8671875 37.5234375 C-3.29381106 44.34343613 -10.25788194 45.95774376 -20.01171875 45.76953125 C-27.07601049 45.21252201 -32.46104477 41.77224067 -37.1328125 36.5234375 C-42.00236536 29.64228094 -43.48296561 22.84389326 -42.1328125 14.5234375 C-39.66078893 6.79155761 -35.20023786 1.28397779 -28.08203125 -2.59375 C-19.21060992 -6.61166828 -7.89014962 -5.46241127 0 0 Z " fill="#1BCE5B" transform="translate(316.1328125,62.4765625)"/>
<path d="M0 0 C2.10144706 1.24654976 4.02964543 2.54815979 6 4 C5.38545304 7.99455527 3.29353263 10.74466336 1 14 C-1.9841237 13.36579026 -4.36568835 12.34387467 -7.0625 10.9375 C-12.25289764 8.56647118 -17.36395344 8.17145298 -23 9 C-25.34886432 10.94074886 -25.34886432 10.94074886 -25.4375 14.4375 C-25.41722451 18.03864527 -25.41722451 18.03864527 -23.0546875 19.55078125 C-19.0476503 21.45181808 -14.94792242 22.55348392 -10.6875 23.75 C-3.59475257 25.85026 2.29617523 27.95667546 7 34 C9.22944718 38.45889437 8.48667316 44.16156337 8 49 C6.29850212 54.08064086 3.59448119 56.98197658 -1.125 59.4375 C-9.87624247 63.23424527 -20.96031911 63.6013599 -29.92578125 60.06640625 C-33.84607782 58.05088654 -37.44513729 55.5968146 -41 53 C-40.29296777 48.16454967 -38.64468616 46.2708722 -35 43 C-32.98492462 44.00528369 -30.97204278 45.01422008 -28.96484375 46.03515625 C-28.29582031 46.37417969 -27.62679687 46.71320313 -26.9375 47.0625 C-26.26589844 47.40410156 -25.59429687 47.74570313 -24.90234375 48.09765625 C-20.00772389 50.41933425 -15.32482141 50.61048908 -10 50 C-6.81119393 48.53651397 -6.81119393 48.53651397 -5 46 C-4.24978756 43.45632332 -4.24978756 43.45632332 -5 41 C-7.69142183 38.60060928 -10.13798428 37.45213938 -13.58984375 36.5 C-14.45673828 36.2525 -15.32363281 36.005 -16.21679688 35.75 C-17.11462891 35.5025 -18.01246094 35.255 -18.9375 35 C-33.60258252 30.93987622 -33.60258252 30.93987622 -38.0390625 24.28515625 C-40.12566705 19.32310885 -39.88514967 14.2269057 -39 9 C-36.51163812 2.94853628 -31.70096567 -0.55229718 -25.83984375 -3.15234375 C-16.79320932 -5.85264591 -8.20297143 -4.3749181 0 0 Z " fill="#1BCE5B" transform="translate(208,46)"/>
<path d="M0 0 C0.67160156 0.28447998 1.34320313 0.56895996 2.03515625 0.86206055 C5.80768682 2.55055669 8.74747533 4.22066466 11.3125 7.5 C11.3125 11.01359068 10.9437066 12.77528132 8.625 15.4375 C5.29549659 16.96727184 3.84660644 16.54714265 0.3125 15.5 C-1.04798874 14.76153012 -2.40126106 14.00971748 -3.75 13.25 C-12.02623089 8.88339966 -21.59929784 7.41810347 -30.6875 5.5 C-31.48381836 5.31824219 -32.28013672 5.13648438 -33.10058594 4.94921875 C-46.21181199 2.67244865 -62.12392952 3.15189423 -74.92578125 6.84375 C-78.83912103 7.77365252 -83.00023295 8.42527548 -86.625 6.4375 C-88.3015629 3.38023824 -88.05278977 0.9093712 -87.6875 -2.5 C-85.61199459 -5.72061184 -82.57949012 -6.3254794 -78.98950195 -7.18701172 C-52.87586398 -12.71442089 -24.58341823 -10.50571032 0 0 Z " fill="#010602" transform="translate(115.6875,51.5)"/>
<path d="M0 0 C3.96 0 7.92 0 12 0 C12 4.29 12 8.58 12 13 C15.96 13 19.92 13 24 13 C24 16.3 24 19.6 24 23 C20.04 23 16.08 23 12 23 C12.1400827 27.31275889 12.2867801 31.62511136 12.4375 35.9375 C12.47681641 37.16919922 12.51613281 38.40089844 12.55664062 39.66992188 C12.59853516 40.83974609 12.64042969 42.00957031 12.68359375 43.21484375 C12.72025146 44.29886475 12.75690918 45.38288574 12.79467773 46.49975586 C12.72364265 48.939263 12.72364265 48.939263 14 50 C15.85772162 49.91015699 17.71247985 49.75388139 19.5625 49.5625 C22.2540625 49.2840625 22.2540625 49.2840625 25 49 C25 52.63 25 56.26 25 60 C20.70605202 61.71757919 18.86377341 62.27451558 14.5 62.25 C13.5821875 62.25515625 12.664375 62.2603125 11.71875 62.265625 C7.77883444 61.88069072 4.93010802 61.02976245 2.25 58.0625 C-0.13921049 54.1203027 -0.1173763 50.8791718 -0.09765625 46.36328125 C-0.09443359 45.06455078 -0.09121094 43.76582031 -0.08789062 42.42773438 C-0.07953531 41.05598892 -0.07107037 39.68424413 -0.0625 38.3125 C-0.05748335 36.92903805 -0.05292073 35.54557437 -0.04882812 34.16210938 C-0.03702529 30.77469605 -0.02056019 27.38736967 0 24 C-1.98 24 -3.96 24 -6 24 C-6 20.37 -6 16.74 -6 13 C-4.02 13 -2.04 13 0 13 C0 8.71 0 4.42 0 0 Z " fill="#1BD15D" transform="translate(333,46)"/>
<path d="M0 0 C0.7425 0.41636719 1.485 0.83273438 2.25 1.26171875 C4 2.3125 4 2.3125 5 3.3125 C5.29044498 6.0717273 5.3190465 7.74947676 3.9375 10.1875 C1.52677874 11.58727364 -0.10404627 11.47117006 -2.8046875 10.95703125 C-6.55901867 9.854781 -10.08305871 8.20805943 -13.66796875 6.65234375 C-24.61651348 2.24982225 -35.32764249 0.11554318 -47.0625 0.125 C-48.45662109 0.12512085 -48.45662109 0.12512085 -49.87890625 0.12524414 C-58.02158192 0.19239294 -65.77128931 1.01668909 -73.6953125 2.98046875 C-76 3.3125 -76 3.3125 -78.375 1.6875 C-80 -0.6875 -80 -0.6875 -79.875 -3.3125 C-79 -5.6875 -79 -5.6875 -77 -7.6875 C-52.46288249 -17.25104225 -22.50773171 -12.74098384 0 0 Z " fill="#010803" transform="translate(112,77.6875)"/>
<path d="M0 0 C0.68191406 0.34160156 1.36382812 0.68320313 2.06640625 1.03515625 C3.75 2 3.75 2 6 4 C6.5 6.625 6.5 6.625 6 9 C5.34 9.66 4.68 10.32 4 11 C0.36059356 10.83072528 -1.82679279 10.10687253 -4.9375 8.1875 C-20.48884605 -1.02186545 -44.61270773 -0.15868315 -61.7578125 3.60546875 C-64 4 -64 4 -65.875 2.875 C-67 1 -67 1 -66.6875 -1.6875 C-66.460625 -2.450625 -66.23375 -3.21375 -66 -4 C-64.69211261 -4.49161725 -63.37828093 -4.96741758 -62.0625 -5.4375 C-61.33160156 -5.70433594 -60.60070313 -5.97117187 -59.84765625 -6.24609375 C-40.86597715 -11.27142169 -17.41504241 -8.83132482 0 0 Z " fill="#020A04" transform="translate(102,97)"/>
<path d="M0 0 C4.6489842 1.69866731 7.66153882 3.59290008 10 8 C10.81899573 12.96339653 11.22701501 17.79661025 8.71875 22.30078125 C6.12582946 25.3703416 3.95261955 27.7541666 -0.171875 28.2734375 C-7.99106636 28.58146625 -7.99106636 28.58146625 -11.5 25.75 C-15.89398257 20.91661917 -16.54718019 17.21186038 -16.4609375 10.76953125 C-15.72897489 6.37155249 -13.37436891 3.7799205 -10 1 C-6.79821961 -0.60089019 -3.48231013 -0.3573266 0 0 Z " fill="#121212201" transform="translate(303,69)"/>
<path d="M0 0 C4.12385927 1.78075741 6.79644397 4.08256705 9 8 C9.66265885 12.88894973 9.67245012 17.33657077 7.8125 21.9375 C2.80076082 27.64051355 2.80076082 27.64051355 -1.11328125 28.421875 C-5.26100004 28.67282941 -8.12722097 28.37063757 -11.4375 25.75 C-15.91376852 20.94619963 -16.54751298 17.23671973 -16.4609375 10.76953125 C-15.72897489 6.37155249 -13.37436891 3.7799205 -10 1 C-6.80436932 -0.59781534 -3.4765367 -0.36841911 0 0 Z " fill="#121212301" transform="translate(249,69)"/>
<path d="M0 0 C3.96 0 7.92 0 12 0 C12 15.84 12 31.68 12 48 C8.04 48 4.08 48 0 48 C0 32.16 0 16.32 0 0 Z " fill="#1BD55E" transform="translate(363,59)"/>
<path d="M0 0 C3.71317907 1.14770989 5.2692056 1.85342428 7.4375 5.0625 C8.0625 8 8.0625 8 7.4375 11.0625 C4.8125 14 4.8125 14 1.4375 16.0625 C-2.25915479 16.1364331 -3.93816946 15.50610328 -6.9375 13.375 C-8.5625 11.0625 -8.5625 11.0625 -9.125 8.125 C-8.12525449 2.68194111 -5.5711884 0.09774015 0 0 Z " fill="#1BC859" transform="translate(369.5625,36.9375)"/>
<path d="M0 0 C4.99268902 1.47931526 4.99268902 1.47931526 6.375 4 C7.13412409 10.83211679 7.13412409 10.83211679 4.75 14.5 C1.61186002 16.48198314 0.02626535 16.67064058 -3.625 16 C-6.94774404 13.54405875 -8.40118008 12.0743356 -9.25 8 C-8.11814245 2.56708374 -5.59993233 0 0 0 Z " fill="#0D461F" transform="translate(464.625,58)"/>
<path d="M0 0 C5.40432346 -0.48038431 5.40432346 -0.48038431 7.9375 1.5625 C9.45826219 5.05130737 8.94135898 7.36904394 8 11 C5 13 5 13 1 13 C1.33 12.01 1.66 11.02 2 10 C2.99 9.67 3.98 9.34 5 9 C5 6.36 5 3.72 5 1 C3.35 1 1.7 1 0 1 C0 0.67 0 0.34 0 0 Z " fill="#030B05" transform="translate(461,60)"/>
<path d="M0 0 C1.98 0 3.96 0 6 0 C6.82638376 2.89234315 7 4.88742431 7 8 C5 8 5 8 3.375 6.5 C2.92125 6.005 2.4675 5.51 2 5 C2 5.99 2 6.98 2 8 C1.34 8 0.68 8 0 8 C0 5.36 0 2.72 0 0 Z " fill="#15863C" transform="translate(460,62)"/>
<path d="M0 0 C0.99 0.33 1.98 0.66 3 1 C3 1.66 3 2.32 3 3 C2.01 3.33 1.02 3.66 0 4 C0 2.68 0 1.36 0 0 Z M-5 2 C-2.525 2.99 -2.525 2.99 0 4 C0 4.66 0 5.32 0 6 C1.98 5.67 3.96 5.34 6 5 C5.67 5.66 5.34 6.32 5 7 C1.63295715 7.2295711 -0.41370268 7.33943529 -3.375 5.625 C-3.91125 5.08875 -4.4475 4.5525 -5 4 C-5 3.34 -5 2.68 -5 2 Z " fill="#0F5526" transform="translate(462,67)"/>
</svg>